<svg width="486" height="486" viewBox="0 0 486 486" fill="none" xmlns="http://www.w3.org/2000/svg">
<circle cx="243" cy="243" r="243" fill="#D9D9D9"/>
<circle cx="243" cy="243" r="243" fill="url(#paint0_linear_26_3325)" fill-opacity="0.1"/>
<circle cx="242.521" cy="243" r="224.521" fill="#D9D9D9"/>
<circle cx="242.521" cy="243" r="224.521" fill="#030303"/>
<circle cx="242.521" cy="243" r="224.521" fill="url(#paint1_linear_26_3325)" fill-opacity="0.1"/>
<path d="M334.796 270.409C337.366 261.95 338.766 252.985 338.766 243.701C338.766 242.669 338.727 241.656 338.689 240.625C301.813 219.28 274.007 173.553 262.366 151.852C256.077 150.576 249.557 149.92 242.883 149.92C236.21 149.92 230.131 150.558 224.033 151.739C218.836 161.342 210.456 175.691 199.448 190.564C186.753 207.726 168.555 228.246 147.077 240.7C147.039 241.694 147 242.688 147 243.701C147 253.004 148.4 261.988 150.989 270.466C166.925 263.132 181.384 252.272 194.098 240.024C185.028 261.013 174.921 281.382 164.394 297.531C170.07 305.446 176.973 312.461 184.817 318.313C196.322 301.845 207.943 280.181 219.603 253.416C215.48 280.95 209.497 305.052 200.867 328.028C209.42 332.117 218.701 334.987 228.462 336.431C234.637 321.014 239.508 305.69 243.343 285.752C247.198 305.615 252.088 320.901 258.263 336.262C267.985 334.724 277.209 331.761 285.704 327.597C277.362 305.446 271.494 282.226 267.352 255.498C278.666 281.232 289.961 302.145 301.122 318.163C308.965 312.292 315.85 305.24 321.507 297.306C311.056 281.213 301.026 260.994 292.013 240.156C304.631 252.328 318.956 263.113 334.777 270.409H334.796Z" fill="white"/>
<circle cx="242.622" cy="243" r="195.021" stroke="url(#paint2_radial_26_3325)" stroke-opacity="0.3" stroke-width="1.20297"/>
<defs>
<linearGradient id="paint0_linear_26_3325" x1="243" y1="0" x2="243.429" y2="468.883" gradientUnits="userSpaceOnUse">
<stop stop-color="white"/>
<stop offset="1" stop-color="white" stop-opacity="0"/>
</linearGradient>
<linearGradient id="paint1_linear_26_3325" x1="242.521" y1="18.4791" x2="242.917" y2="451.706" gradientUnits="userSpaceOnUse">
<stop stop-color="white"/>
<stop offset="1" stop-color="white" stop-opacity="0"/>
</linearGradient>
<radialGradient id="paint2_radial_26_3325" cx="0" cy="0" r="1" gradientUnits="userSpaceOnUse" gradientTransform="translate(370.343 395.013) rotate(-130.818) scale(531.91 336.386)">
<stop stop-color="white"/>
<stop offset="1" stop-color="white" stop-opacity="0"/>
</radialGradient>
</defs>
</svg>
